<svg width="57" height="56" viewBox="0 0 57 56" fill="none" xmlns="http://www.w3.org/2000/svg">
<path d="M56.8659 21.2273C56.86 21.1635 56.847 21.1005 56.827 21.0394C56.814 20.9849 56.7959 20.9316 56.773 20.8802C56.7465 20.83 56.7147 20.7825 56.6783 20.7385C56.6417 20.6864 56.5994 20.6383 56.5522 20.5951C56.5369 20.5822 56.5304 20.5645 56.5143 20.5516L47.3973 13.6391V6.47483C47.3973 4.94146 46.124 3.69833 44.5533 3.69833H34.2798L30.1663 0.580299C29.1501 -0.193433 27.7251 -0.193433 26.7089 0.580299L22.5946 3.69833H12.321C10.7504 3.69833 9.477 4.94135 9.477 6.47483V13.6392L0.362945 20.5517C0.346836 20.5647 0.34017 20.5823 0.325062 20.5952C0.277847 20.6383 0.23552 20.6865 0.19897 20.7387C0.162531 20.7826 0.130758 20.83 0.104206 20.8803C0.0812099 20.9316 0.0632126 20.985 0.0502146 21.0395C0.0304398 21.0997 0.0174418 21.1617 0.0113316 21.2247C0.0113316 21.2441 0 21.2608 0 21.2802V52.7497C0.00133313 53.3384 0.196415 53.9111 0.556471 54.3832C0.562137 54.3916 0.563136 54.4018 0.569691 54.4091C0.576357 54.4165 0.590577 54.4249 0.60002 54.4351C1.13261 55.1192 1.96092 55.5226 2.84112 55.5262H54.0333C54.917 55.5236 55.7487 55.1183 56.282 54.4305C56.2895 54.4213 56.301 54.4185 56.3075 54.4092C56.3142 54.4 56.3151 54.3917 56.3209 54.3833C56.6809 53.9111 56.876 53.3384 56.8773 52.7498V21.2828C56.8772 21.2634 56.8669 21.2467 56.8659 21.2273ZM27.8683 2.04067C28.1994 1.78385 28.6682 1.78385 28.9992 2.04067L31.1862 3.69822H25.6879L27.8683 2.04067ZM3.07998 53.6753L27.8684 34.8774C28.1997 34.621 28.6682 34.621 28.9994 34.8774L53.7944 53.6753H3.07998ZM54.9813 52.2324L30.1663 33.417C29.1499 32.6439 27.7253 32.6439 26.7089 33.417L1.89304 52.2324V22.6923L17.428 34.4693C17.8419 34.7826 18.4376 34.7091 18.7586 34.305C19.0795 33.9009 19.0042 33.3193 18.5903 33.006L2.80791 21.0421L9.47711 15.9824V23.1337C9.47711 23.6449 9.9016 24.0592 10.4251 24.0592C10.9487 24.0592 11.373 23.6448 11.373 23.1337V6.47472C11.373 5.96356 11.7974 5.54926 12.321 5.54926H44.5531C45.0767 5.54926 45.5011 5.96356 45.5011 6.47472V23.1337C45.5011 23.6449 45.9254 24.0592 46.449 24.0592C46.9726 24.0592 47.397 23.6448 47.397 23.1337V15.9824L54.0662 21.0421L38.2564 33.0274C37.9844 33.2286 37.8441 33.557 37.8892 33.8872C37.9343 34.2175 38.1577 34.4986 38.4742 34.6232C38.7908 34.7478 39.1515 34.6969 39.4187 34.4896L54.9811 22.6923V52.2324H54.9813Z" fill="#1A1A18"/>
<path d="M39.8147 22.2096V18.5076C39.8147 12.3738 34.7215 7.40137 28.4386 7.40137C22.1558 7.40137 17.0625 12.3738 17.0625 18.5076C17.0625 24.6414 22.1558 29.6138 28.4386 29.6138C28.9622 29.6138 29.3866 29.1995 29.3866 28.6883C29.3866 28.1772 28.9622 27.7628 28.4386 27.7628C23.2029 27.7628 18.9586 23.6192 18.9586 18.5077C18.9586 13.3962 23.2029 9.25255 28.4386 9.25255C33.6743 9.25255 37.9187 13.3962 37.9187 18.5077V22.2097C37.9187 23.2321 37.0698 24.0608 36.0226 24.0608C34.9754 24.0608 34.1266 23.2321 34.1266 22.2097V18.5077C34.1266 17.9965 33.7022 17.5822 33.1786 17.5822C32.655 17.5822 32.2306 17.9965 32.2306 18.5077C32.2306 20.5523 30.5329 22.2097 28.4386 22.2097C26.3444 22.2097 24.6466 20.5523 24.6466 18.5077C24.6466 16.4631 26.3444 14.8057 28.4386 14.8057C28.9622 14.8057 29.3866 14.3913 29.3866 13.8802C29.3866 13.369 28.9622 12.9547 28.4386 12.9547C25.8929 12.9492 23.6533 14.5957 22.9556 16.9859C22.258 19.3761 23.2719 21.9278 25.4383 23.2333C27.6046 24.5387 30.3955 24.2799 32.2714 22.5995C32.4778 24.5568 34.2203 26.0121 36.2329 25.9081C38.2456 25.804 39.8211 24.1773 39.8147 22.2096Z" fill="#1A1A18"/>
</svg>
