<svg width="57" height="60" viewBox="0 0 57 60" fill="none" xmlns="http://www.w3.org/2000/svg">
<path d="M1.26663 18.6799C1.60535 19.9889 2.74351 20.8935 4.03665 20.8814C4.22307 20.8815 4.40915 20.8628 4.59223 20.8257L10.3371 19.6702L14.7567 18.6529C16.2114 18.3786 17.2119 16.9652 17.0413 15.4253L16.502 11.087C16.4347 10.547 17.6149 9.94842 18.7155 9.77445C25.0958 8.6917 31.5991 8.67399 37.9846 9.72178C39.7393 10.039 40.1271 10.3344 40.2105 10.4447C40.3868 10.9014 40.4126 11.4067 40.2835 11.8805L39.8966 14.7642C39.6791 15.6965 39.8335 16.6815 40.3242 17.4917C41.0114 18.2531 41.9396 18.7258 42.9351 18.8211C43.5986 18.9543 44.1097 19.0885 44.6206 19.2188C45.1628 19.36 45.7042 19.5011 46.4094 19.6424L51.5485 20.6825C52.4423 20.9588 53.3998 20.9005 54.257 20.5173C55.1592 19.9076 55.7436 18.896 55.8411 17.7749L55.8724 17.6308C55.972 17.1714 56.1037 16.7159 56.2355 16.2606C56.6107 15.1681 56.813 14.0188 56.8346 12.8579C56.6817 10.8122 55.7826 8.90716 54.3243 7.53916C47.7603 0.781649 36.4071 0 28.4438 0C10.2641 0.000116525 3.33709 5.4889 0.727152 10.0937C0.0103715 11.3676 -0.186487 12.8907 0.181123 14.3187L1.26663 18.6799ZM2.3559 11.1119C4.71455 6.94861 11.1552 1.98885 28.4441 1.98885C36.0783 1.98885 46.9301 2.71177 52.9973 8.95819C54.1003 9.96905 54.7934 11.3837 54.935 12.9127C54.9019 13.8597 54.7266 14.7953 54.4156 15.6849C54.2724 16.1821 54.1312 16.6843 54.0193 17.1883L53.9861 17.3395C53.8278 18.0793 53.7017 18.5774 53.3765 18.7554C52.8936 18.8933 52.3831 18.8837 51.9052 18.7275L46.7698 17.6994C46.1063 17.5662 45.5933 17.432 45.0824 17.3017C44.5402 17.1605 43.9988 17.0194 43.2955 16.8782C42.8414 16.7867 42.0801 16.6345 41.8384 16.2995C41.686 15.9019 41.6647 15.4624 41.7777 15.0506L42.1654 12.1669C42.3917 11.1972 42.2488 10.1732 41.7673 9.3122C41.1548 8.39736 39.7432 8.03147 38.3108 7.77197C31.7247 6.68794 25.0165 6.70332 18.4349 7.81777C16.3607 8.14788 14.3784 9.36894 14.6249 11.3546L15.1653 15.6919C15.2044 16.1981 14.8592 16.648 14.3794 16.7161L9.95797 17.7233L4.23584 18.8728C3.74125 18.9899 3.24455 18.686 3.09824 18.1768L2.01651 13.8216C1.77744 12.9072 1.89975 11.9304 2.3559 11.1119Z" fill="#1A1A18"/>
<path d="M56.7135 45.3925C56.7041 45.3667 56.6945 45.3418 56.6841 45.319C56.5955 45.0719 56.4767 44.8379 56.3304 44.623L44.2804 27.4705C43.5638 26.455 42.4315 25.855 41.2269 25.8527H38.762L37.924 18.8197C37.8868 17.7498 37.0487 16.9029 36.028 16.9036H33.184C32.1368 16.9036 31.2879 17.7939 31.2879 18.8923V26.8471C31.2879 27.3963 31.7123 27.8414 32.2359 27.8414C32.7595 27.8414 33.1839 27.3963 33.1839 26.8471V18.8923H36.0279C36.0275 18.9335 36.0301 18.9748 36.0354 19.0156L36.9834 26.9704C37.0427 27.468 37.4458 27.8413 37.9238 27.8414H41.2266C41.8287 27.8425 42.3948 28.1423 42.753 28.6499L54.0598 44.7453H46.4558C45.9323 44.7453 45.5079 45.1906 45.5079 45.7397C45.5079 46.2888 45.9323 46.734 46.4558 46.734H54.9879V54.6888C54.9879 56.3362 53.7146 57.6718 52.1439 57.6718H4.74396C3.17331 57.6718 1.89995 56.3363 1.89995 54.6888V46.734H41.7161C42.2397 46.734 42.6641 46.2887 42.6641 45.7397C42.6641 45.1905 42.2397 44.7453 41.7161 44.7453H2.82803L14.1349 28.6499C14.493 28.1423 15.0591 27.8425 15.6612 27.8414H18.964C19.4421 27.8413 19.8452 27.4678 19.9044 26.9704L20.8524 19.0156C20.8577 18.9747 20.8603 18.9335 20.86 18.8923H23.704V26.8471C23.704 27.3963 24.1283 27.8414 24.6519 27.8414H28.4439C28.9675 27.8414 29.3919 27.3963 29.3919 26.8471C29.3919 26.2979 28.9675 25.8528 28.4439 25.8528H25.5999V18.8924C25.5999 17.794 24.751 16.9037 23.7039 16.9037H20.8598C19.8391 16.903 19.0011 17.7499 18.9638 18.8198L18.1267 25.8528H15.6619C14.4587 25.8563 13.3279 26.4562 12.6121 27.4706L0.5576 44.6239C0.410622 44.8383 0.291751 45.0724 0.203987 45.3199C0.193544 45.3418 0.184101 45.3667 0.174547 45.3915C0.0635638 45.7126 0.00590595 46.0512 0.00390625 46.3928V54.6887C0.00701689 57.4331 2.12736 59.6571 4.74396 59.6604H52.1442C54.7607 59.6572 56.881 57.4332 56.8843 54.6887V46.3928C56.8823 46.0517 56.8246 45.7133 56.7135 45.3925Z" fill="#1A1A18"/>
<path d="M22.1958 33.2984C23.0689 32.8097 24.0016 32.448 24.9677 32.2234C27.2565 31.6875 29.6298 31.6875 31.9185 32.2234C32.249 32.3058 32.5963 32.1963 32.8288 31.9364C33.0613 31.6766 33.1434 31.3062 33.0441 30.9653C32.9448 30.6246 32.6792 30.3656 32.3479 30.2864C29.7765 29.6828 27.1097 29.6828 24.5381 30.2864C23.4031 30.5522 22.3078 30.9791 21.2827 31.5553C20.3841 32.0487 19.5921 32.731 18.9563 33.5599C17.6995 35.1445 17.6995 37.4441 18.9563 39.0288C19.5921 39.8576 20.3841 40.5401 21.2827 41.0333C22.3079 41.6094 23.4031 42.0363 24.5381 42.3022C27.1092 42.9094 29.7768 42.9094 32.3479 42.3022C33.483 42.0364 34.5782 41.6096 35.6033 41.0333C36.502 40.54 37.294 39.8576 37.9298 39.0288C39.1866 37.4441 39.1866 35.1445 37.9298 33.5599C37.7262 33.2696 37.3888 33.1177 37.048 33.1625C36.7072 33.2074 36.4162 33.4422 36.2873 33.7761C36.1585 34.1101 36.212 34.4911 36.4271 34.772C37.1575 35.6423 37.1575 36.9463 36.4271 37.8167C35.9487 38.4255 35.3579 38.9268 34.6903 39.2902C33.8172 39.7789 32.8846 40.1406 31.9184 40.3652C29.6296 40.9011 27.2563 40.9011 24.9676 40.3652C24.0017 40.1409 23.0694 39.7792 22.1966 39.2902C21.5286 38.9269 20.9374 38.4257 20.4588 37.8167C19.7284 36.9463 19.7284 35.6423 20.4588 34.772C20.9374 34.1631 21.5281 33.6619 22.1958 33.2984Z" fill="#1A1A18"/>
</svg>
