<svg width="57" height="55" viewBox="0 0 57 55" fill="none" xmlns="http://www.w3.org/2000/svg">
<path d="M18.6627 37.5509C21.0052 40.7754 23.344 43.6593 24.894 45.5167C25.1196 45.787 25.331 46.0377 25.5358 46.2793H20.8583C20.3348 46.2793 19.9104 46.6936 19.9104 47.2047C19.9104 47.7159 20.3348 48.1302 20.8583 48.1302H36.0263C36.5499 48.1302 36.9743 47.7159 36.9743 47.2047C36.9743 46.6936 36.5499 46.2793 36.0263 46.2793H31.3489C31.5537 46.0377 31.7651 45.7869 31.9917 45.5167C33.5407 43.6657 35.8786 40.7754 38.222 37.5509C40.5471 34.416 42.6399 31.123 44.4845 27.6971C46.4204 23.9858 47.4025 20.9049 47.4025 18.5393C47.409 13.6239 45.4111 8.90819 41.85 5.43321C41.6122 5.19244 41.2598 5.09569 40.9283 5.18018C40.5968 5.26467 40.3377 5.51716 40.2507 5.84069C40.1637 6.16422 40.2623 6.50835 40.5086 6.74089C43.7139 9.86923 45.5122 14.1144 45.5065 18.5392C45.5065 20.6105 44.5945 23.4092 42.7952 26.8567C40.9923 30.2032 38.9469 33.4198 36.6749 36.482C34.3637 39.6648 32.0534 42.5162 30.5224 44.3487C30.0133 44.9577 29.5554 45.4963 29.1648 45.9517C28.9825 46.155 28.7192 46.2715 28.4424 46.2715C28.1657 46.2715 27.9024 46.1549 27.7201 45.9517C27.3295 45.4964 26.8717 44.9577 26.3625 44.3487C24.8315 42.5172 22.5212 39.6656 20.21 36.482C17.938 33.4198 15.8926 30.2032 14.0897 26.8567C12.2885 23.4092 11.3784 20.6105 11.3784 18.5392C11.3778 11.8356 15.4844 5.78169 21.8065 3.16569C26.0546 1.42669 30.8401 1.42669 35.0881 3.16569C35.4001 3.29476 35.7588 3.2517 36.0293 3.05246C36.2998 2.85334 36.4409 2.5284 36.3995 2.2001C36.3581 1.8718 36.1404 1.59002 35.8285 1.46096C26.1746 -2.51422 15.0475 1.90151 10.9727 11.3249C9.98449 13.6075 9.47768 16.0612 9.48246 18.5392C9.48246 20.9048 10.4646 23.9858 12.4005 27.7017C14.2449 31.126 16.3378 34.4175 18.6627 37.5509Z" fill="#1A1A18"/>
<path d="M28.4402 10.1859C28.9638 10.1859 29.3882 9.77165 29.3882 9.26056C29.3882 8.74946 28.9638 8.33521 28.4402 8.33521C23.9175 8.3351 20.0245 11.4537 19.1421 15.7837C18.2597 20.1136 20.6337 24.449 24.8121 26.1385C28.9905 27.8281 33.8096 26.4011 36.3224 22.7304C38.8351 19.0597 38.3415 14.1674 35.1436 11.0457C34.9055 10.8051 34.5531 10.7086 34.2216 10.7933C33.8902 10.878 33.6313 11.1307 33.5446 11.4542C33.4578 11.7778 33.5567 12.1217 33.8031 12.3541C36.3616 14.8515 36.7565 18.7651 34.7465 21.7018C32.7365 24.6384 28.8811 25.7801 25.5384 24.4287C22.1957 23.0773 20.2964 19.609 21.0021 16.145C21.7077 12.681 24.8221 10.186 28.4402 10.1859Z" fill="#1A1A18"/>
<path d="M56.5232 50.5097L50.6929 40.3301C50.1658 39.4257 49.1794 38.8698 48.1134 38.8763H41.357C40.8334 38.8763 40.4091 39.2906 40.4091 39.8017C40.4091 40.3128 40.8334 40.727 41.357 40.727H48.1134C48.4929 40.7199 48.847 40.913 49.0396 41.2323L54.868 51.4118C55.0267 51.6767 55.0234 52.0051 54.8594 52.2669C54.6658 52.5793 54.3156 52.7663 53.9418 52.7574H2.93918C2.56568 52.7661 2.21596 52.5789 2.02243 52.2669C1.85846 52.0051 1.85524 51.6767 2.01388 51.4118L7.84222 41.2323C8.03452 40.9131 8.38825 40.72 8.76741 40.727H15.5238C16.0474 40.727 16.4718 40.3128 16.4718 39.8017C16.4718 39.2906 16.0474 38.8763 15.5238 38.8763H8.76752C7.70102 38.8695 6.71383 39.4253 6.18614 40.3301L0.356797 50.5097C-0.129241 51.3477 -0.11802 52.3758 0.386237 53.2036C0.91749 54.085 1.89168 54.6211 2.93918 54.6084H53.9418C54.989 54.6208 55.9628 54.0848 56.4938 53.2036C56.9981 52.3757 57.0093 51.3477 56.5232 50.5097Z" fill="#1A1A18"/>
<path d="M46.4514 43.502H42.6594C42.4722 43.5023 42.2893 43.5563 42.1333 43.6575L39.2893 45.5084C38.8537 45.7921 38.7361 46.3668 39.0266 46.792C39.3173 47.2172 39.9059 47.332 40.3416 47.0484L42.9438 45.353H46.4514C46.975 45.353 47.3994 44.9386 47.3994 44.4276C47.3994 43.9162 46.975 43.502 46.4514 43.502Z" fill="#1A1A18"/>
<path d="M40.7637 49.9831C40.7637 50.4951 41.188 50.91 41.7116 50.91H49.2956C49.8191 50.91 50.2435 50.4951 50.2435 49.9831C50.2435 49.4711 49.8191 49.0562 49.2956 49.0562H41.7116C41.188 49.0562 40.7637 49.4711 40.7637 49.9831Z" fill="#1A1A18"/>
<path d="M17.0665 47.204C17.4844 47.2046 17.8534 46.9378 17.9748 46.5473C18.0962 46.1569 17.9413 45.7349 17.5936 45.5085L14.7496 43.6575C14.5934 43.5562 14.41 43.5021 14.2224 43.502H10.4304C9.90681 43.502 9.48242 43.9164 9.48242 44.4274C9.48242 44.9386 9.90692 45.3529 10.4304 45.3529H13.938L16.5432 47.0484C16.6982 47.1495 16.8803 47.2036 17.0665 47.204Z" fill="#1A1A18"/>
<path d="M7.58662 49.0562C7.06304 49.0562 6.63867 49.4711 6.63867 49.9831C6.63867 50.4951 7.06304 50.91 7.58662 50.91H15.1706C15.6941 50.91 16.1185 50.4951 16.1185 49.9831C16.1185 49.4711 15.6941 49.0562 15.1706 49.0562H7.58662Z" fill="#1A1A18"/>
</svg>
