<svg width="59" height="59" viewBox="0 0 59 59" fill="none" xmlns="http://www.w3.org/2000/svg">
<path d="M29.5 0C13.2337 0 0 13.2337 0 29.5C0 45.7663 13.2337 59 29.5 59C45.7663 59 59 45.7663 59 29.5C59 13.2337 45.7663 0 29.5 0ZM29.5 57.0333C14.3183 57.0333 1.96667 44.6817 1.96667 29.5C1.96667 14.3183 14.3183 1.96667 29.5 1.96667C44.6817 1.96667 57.0333 14.3183 57.0333 29.5C57.0333 44.6817 44.6817 57.0333 29.5 57.0333Z" fill="#1A1A18"/>
<path d="M30.4833 25.5873V15.6144C30.4833 15.0706 30.0428 14.631 29.5 14.631C28.9572 14.631 28.5167 15.0706 28.5167 15.6144V25.5873C27.141 25.9453 26.0642 27.022 25.7063 28.3977H18.6833C18.1405 28.3977 17.7 28.8372 17.7 29.381C17.7 29.9248 18.1405 30.3644 18.6833 30.3644H25.7063C26.1459 32.0557 27.673 33.3144 29.5 33.3144C31.6692 33.3144 33.4333 31.5503 33.4333 29.381C33.4333 27.553 32.1747 26.0269 30.4833 25.5873ZM29.5 31.3477C28.4154 31.3477 27.5333 30.4656 27.5333 29.381C27.5333 28.2964 28.4154 27.4144 29.5 27.4144C30.5846 27.4144 31.4667 28.2964 31.4667 29.381C31.4667 30.4656 30.5846 31.3477 29.5 31.3477Z" fill="#1A1A18"/>
<path d="M29.5 9.71435C30.0428 9.71435 30.4833 9.2748 30.4833 8.73102V7.74769C30.4833 7.2039 30.0428 6.76435 29.5 6.76435C28.9572 6.76435 28.5167 7.2039 28.5167 7.74769V8.73102C28.5167 9.2748 28.9572 9.71435 29.5 9.71435Z" fill="#1A1A18"/>
<path d="M29.5 49.0477C28.9572 49.0477 28.5167 49.4872 28.5167 50.031V51.0144C28.5167 51.5581 28.9572 51.9977 29.5 51.9977C30.0428 51.9977 30.4833 51.5581 30.4833 51.0144V50.031C30.4833 49.4872 30.0428 49.0477 29.5 49.0477Z" fill="#1A1A18"/>
<path d="M51.1333 28.3977H50.15C49.6072 28.3977 49.1667 28.8372 49.1667 29.381C49.1667 29.9248 49.6072 30.3644 50.15 30.3644H51.1333C51.6761 30.3644 52.1167 29.9248 52.1167 29.381C52.1167 28.8372 51.6761 28.3977 51.1333 28.3977Z" fill="#1A1A18"/>
<path d="M8.85 28.3977H7.86667C7.32387 28.3977 6.88333 28.8372 6.88333 29.381C6.88333 29.9248 7.32387 30.3644 7.86667 30.3644H8.85C9.3928 30.3644 9.83333 29.9248 9.83333 29.381C9.83333 28.8372 9.3928 28.3977 8.85 28.3977Z" fill="#1A1A18"/>
<path d="M44.1015 13.3881L43.4063 14.0833C43.0218 14.4678 43.0218 15.0893 43.4063 15.4737C43.598 15.6655 43.8498 15.7619 44.1015 15.7619C44.3532 15.7619 44.605 15.6655 44.7967 15.4737L45.4919 14.7785C45.8764 14.394 45.8764 13.7726 45.4919 13.3881C45.1074 13.0036 44.486 13.0046 44.1015 13.3881Z" fill="#1A1A18"/>
<path d="M14.2033 43.2873L13.5081 43.9825C13.1236 44.367 13.1236 44.9885 13.5081 45.373C13.6998 45.5647 13.9515 45.6611 14.2033 45.6611C14.455 45.6611 14.7067 45.5647 14.8985 45.373L15.5937 44.6778C15.9782 44.2933 15.9782 43.6718 15.5937 43.2873C15.2092 42.9028 14.5868 42.9038 14.2033 43.2873Z" fill="#1A1A18"/>
<path d="M44.7967 43.2873C44.4122 42.9028 43.7908 42.9028 43.4063 43.2873C43.0218 43.6718 43.0218 44.2933 43.4063 44.6777L44.1015 45.373C44.2932 45.5647 44.545 45.6611 44.7967 45.6611C45.0484 45.6611 45.3002 45.5647 45.4919 45.373C45.8764 44.9885 45.8764 44.367 45.4919 43.9825L44.7967 43.2873Z" fill="#1A1A18"/>
<path d="M14.8985 13.3881C14.514 13.0036 13.8925 13.0036 13.5081 13.3881C13.1236 13.7726 13.1236 14.394 13.5081 14.7785L14.2033 15.4737C14.395 15.6655 14.6468 15.7618 14.8985 15.7618C15.1502 15.7618 15.402 15.6655 15.5937 15.4737C15.9782 15.0892 15.9782 14.4678 15.5937 14.0833L14.8985 13.3881Z" fill="#1A1A18"/>
</svg>
