<svg width="26" height="25" viewBox="0 0 26 25" fill="none" xmlns="http://www.w3.org/2000/svg">
<path d="M25.3609 9.46686C25.3582 9.43842 25.3524 9.41032 25.3435 9.38309C25.3377 9.35876 25.3296 9.33501 25.3194 9.31208C25.3076 9.28969 25.2934 9.2685 25.2772 9.24891C25.2609 9.22565 25.242 9.20422 25.2209 9.18492C25.2142 9.17916 25.2112 9.17128 25.2041 9.16552L21.1381 6.08271V2.88762C21.1381 2.20378 20.5702 1.64937 19.8697 1.64937H15.288L13.4535 0.2588C13.0003 -0.0862666 12.3648 -0.0862666 11.9116 0.2588L10.0766 1.64937H5.49488C4.79441 1.64937 4.22652 2.20373 4.22652 2.88762V6.08275L0.161865 9.16557C0.154681 9.17137 0.151708 9.17921 0.14497 9.18497C0.123913 9.20422 0.105036 9.22569 0.0887358 9.24896C0.0724849 9.26855 0.058315 9.28969 0.0464736 9.31213C0.0362177 9.33501 0.0281913 9.35881 0.0223945 9.38314C0.0135754 9.40998 0.00777863 9.43765 0.00505363 9.4657C0.00505363 9.47436 0 9.48181 0 9.49047V23.5252C0.000594545 23.7877 0.0875963 24.0431 0.248173 24.2536C0.2507 24.2574 0.251146 24.2619 0.254069 24.2652C0.257042 24.2685 0.263383 24.2722 0.267595 24.2768C0.505116 24.5819 0.874526 24.7618 1.26707 24.7634H24.0976C24.4917 24.7623 24.8626 24.5815 25.1005 24.2747C25.1038 24.2706 25.1089 24.2694 25.1118 24.2653C25.1148 24.2611 25.1152 24.2574 25.1178 24.2537C25.2784 24.0431 25.3654 23.7877 25.366 23.5252V9.49163C25.3659 9.48297 25.3613 9.47552 25.3609 9.46686ZM12.4286 0.910092C12.5763 0.795554 12.7853 0.795554 12.933 0.910092L13.9083 1.64932H11.4562L12.4286 0.910092ZM1.3736 23.9379L12.4287 15.5545C12.5764 15.4402 12.7853 15.4402 12.933 15.5545L23.991 23.9379H1.3736ZM24.5204 23.2944L13.4535 14.9032C13.0002 14.5584 12.3649 14.5584 11.9116 14.9032L0.844254 23.2944V10.1202L7.77249 15.3725C7.95709 15.5123 8.22276 15.4795 8.36589 15.2992C8.50903 15.119 8.47544 14.8597 8.29083 14.7199L1.25226 9.3843L4.22657 7.12777V10.3171C4.22657 10.5451 4.41588 10.7298 4.64934 10.7298C4.88285 10.7298 5.07211 10.545 5.07211 10.3171V2.88757C5.07211 2.65961 5.26138 2.47484 5.49488 2.47484H19.8696C20.1032 2.47484 20.2924 2.65961 20.2924 2.88757V10.3171C20.2924 10.5451 20.4817 10.7298 20.7152 10.7298C20.9487 10.7298 21.138 10.545 21.138 10.3171V7.12777L24.1123 9.3843L17.0615 14.7294C16.9402 14.8192 16.8776 14.9656 16.8977 15.1129C16.9178 15.2602 17.0175 15.3856 17.1586 15.4411C17.2998 15.4967 17.4606 15.474 17.5798 15.3816L24.5203 10.1202V23.2944H24.5204Z" fill="#C8C8C8"/>
<path d="M17.7573 9.90492V8.2539C17.7573 5.51836 15.4858 3.30078 12.6838 3.30078C9.88182 3.30078 7.61035 5.51836 7.61035 8.2539C7.61035 10.9894 9.88182 13.207 12.6838 13.207C12.9173 13.207 13.1066 13.0222 13.1066 12.7943C13.1066 12.5663 12.9173 12.3815 12.6838 12.3815C10.3488 12.3815 8.45595 10.5335 8.45595 8.25395C8.45595 5.97435 10.3488 4.12637 12.6838 4.12637C15.0188 4.12637 16.9117 5.97435 16.9117 8.25395V9.90497C16.9117 10.3609 16.5331 10.7305 16.0661 10.7305C15.5991 10.7305 15.2205 10.3609 15.2205 9.90497V8.25395C15.2205 8.02598 15.0313 7.8412 14.7978 7.8412C14.5642 7.8412 14.375 8.02598 14.375 8.25395C14.375 9.16577 13.6178 9.90497 12.6838 9.90497C11.7498 9.90497 10.9927 9.16577 10.9927 8.25395C10.9927 7.34212 11.7498 6.60292 12.6838 6.60292C12.9173 6.60292 13.1066 6.41815 13.1066 6.19018C13.1066 5.96221 12.9173 5.77744 12.6838 5.77744C11.5485 5.77497 10.5497 6.50928 10.2386 7.57526C9.92741 8.64125 10.3796 9.77925 11.3458 10.3614C12.3119 10.9436 13.5566 10.8282 14.3932 10.0788C14.4852 10.9517 15.2623 11.6007 16.1599 11.5543C17.0575 11.5079 17.7601 10.7825 17.7573 9.90492Z" fill="#C8C8C8"/>
</svg>
