<svg width="26" height="27" viewBox="0 0 26 27" fill="none" xmlns="http://www.w3.org/2000/svg">
<path d="M8.32267 17.9925C9.36738 19.5375 10.4104 20.9193 11.1017 21.8093C11.2023 21.9388 11.2966 22.059 11.3879 22.1747H9.30188C9.06838 22.1747 8.87911 22.3732 8.87911 22.6182C8.87911 22.8631 9.06838 23.0616 9.30188 23.0616H16.0664C16.2999 23.0616 16.4892 22.8631 16.4892 22.6182C16.4892 22.3732 16.2999 22.1747 16.0664 22.1747H13.9804C14.0717 22.059 14.166 21.9388 14.2671 21.8093C14.9579 20.9224 16.0005 19.5375 17.0456 17.9925C18.0826 16.4904 19.0159 14.9126 19.8386 13.2711C20.7019 11.4928 21.1399 10.0166 21.1399 8.88312C21.1428 6.52791 20.2518 4.26836 18.6636 2.60333C18.5576 2.48796 18.4004 2.4416 18.2526 2.48209C18.1047 2.52257 17.9892 2.64355 17.9504 2.79857C17.9116 2.95359 17.9555 3.11848 18.0654 3.2299C19.4949 4.72885 20.2969 6.7629 20.2943 8.88307C20.2943 9.87554 19.8876 11.2165 19.0852 12.8684C18.2811 14.4719 17.3689 16.0131 16.3557 17.4804C15.3249 19.0054 14.2946 20.3717 13.6118 21.2497C13.3848 21.5415 13.1805 21.7996 13.0063 22.0178C12.925 22.1152 12.8076 22.171 12.6842 22.171C12.5608 22.171 12.4434 22.1151 12.3621 22.0178C12.1879 21.7996 11.9837 21.5415 11.7566 21.2497C11.0738 20.3721 10.0435 19.0058 9.01273 17.4804C7.99948 16.0131 7.0873 14.4719 6.28323 12.8684C5.47995 11.2165 5.07407 9.87554 5.07407 8.88307C5.07383 5.67101 6.90522 2.7703 9.72475 1.51684C11.6193 0.683598 13.7535 0.683598 15.648 1.51684C15.7871 1.57868 15.9471 1.55805 16.0678 1.46259C16.1884 1.36718 16.2513 1.21148 16.2328 1.05418C16.2144 0.896872 16.1173 0.761861 15.9782 0.700019C11.6728 -1.20469 6.71041 0.911111 4.89313 5.42635C4.45243 6.52006 4.2264 7.69572 4.22853 8.88307C4.22853 10.0165 4.66656 11.4928 5.52989 13.2733C6.35244 14.914 7.28583 16.4912 8.32267 17.9925Z" fill="#C8C8C8"/>
<path d="M12.6835 4.88004C12.917 4.88004 13.1062 4.68152 13.1062 4.4366C13.1062 4.19168 12.917 3.99316 12.6835 3.99316C10.6665 3.99311 8.93029 5.48759 8.53675 7.56255C8.14321 9.6375 9.20194 11.7151 11.0654 12.5247C12.9289 13.3344 15.0781 12.6505 16.1987 10.8915C17.3193 9.13243 17.0992 6.78803 15.673 5.29204C15.5668 5.17677 15.4096 5.13052 15.2618 5.17111C15.114 5.2117 14.9986 5.33278 14.9599 5.4878C14.9212 5.64287 14.9653 5.80771 15.0752 5.91908C16.2162 7.11584 16.3923 8.99129 15.4959 10.3986C14.5995 11.8058 12.8801 12.353 11.3893 11.7053C9.89855 11.0577 9.05152 9.3957 9.36624 7.7357C9.68095 6.07571 11.0699 4.88009 12.6835 4.88004Z" fill="#C8C8C8"/>
<path d="M25.208 24.2017L22.6079 19.3237C22.3728 18.8903 21.9329 18.6239 21.4575 18.627H18.4443C18.2108 18.627 18.0215 18.8255 18.0215 19.0704C18.0215 19.3153 18.2108 19.5139 18.4443 19.5139H21.4575C21.6267 19.5104 21.7846 19.603 21.8705 19.756L24.4698 24.634C24.5406 24.7609 24.5391 24.9183 24.466 25.0438C24.3797 25.1934 24.2235 25.2831 24.0568 25.2788H1.31081C1.14423 25.283 0.988266 25.1933 0.901958 25.0438C0.828829 24.9183 0.827392 24.7609 0.898143 24.634L3.49744 19.756C3.58321 19.603 3.74096 19.5105 3.91006 19.5139H6.92326C7.15677 19.5139 7.34604 19.3153 7.34604 19.0704C7.34604 18.8255 7.15677 18.627 6.92326 18.627H3.91011C3.43447 18.6237 2.99421 18.8901 2.75887 19.3237L0.159123 24.2017C-0.0576382 24.6033 -0.0526342 25.0959 0.172253 25.4926C0.409179 25.915 0.843643 26.1719 1.31081 26.1658H24.0568C24.5238 26.1717 24.9581 25.9149 25.1949 25.4926C25.4198 25.0959 25.4248 24.6033 25.208 24.2017Z" fill="#C8C8C8"/>
<path d="M20.7164 20.8445H19.0252C18.9417 20.8446 18.8601 20.8705 18.7906 20.919L17.5222 21.8059C17.3279 21.9419 17.2755 22.2173 17.4051 22.421C17.5347 22.6248 17.7972 22.6798 17.9915 22.5439L19.1521 21.7315H20.7164C20.9499 21.7315 21.1391 21.5329 21.1391 21.288C21.1391 21.043 20.9499 20.8445 20.7164 20.8445Z" fill="#C8C8C8"/>
<path d="M18.1807 23.9486C18.1807 24.1935 18.3699 24.392 18.6034 24.392H21.9858C22.2193 24.392 22.4085 24.1935 22.4085 23.9486C22.4085 23.7036 22.2193 23.5051 21.9858 23.5051H18.6034C18.3699 23.5051 18.1807 23.7036 18.1807 23.9486Z" fill="#C8C8C8"/>
<path d="M7.61078 22.6183C7.79717 22.6186 7.96172 22.4908 8.01587 22.3037C8.07002 22.1166 8.00096 21.9144 7.84588 21.8059L6.57751 20.919C6.50785 20.8705 6.42605 20.8445 6.34242 20.8445H4.65129C4.41778 20.8445 4.22852 21.043 4.22852 21.2879C4.22852 21.5328 4.41783 21.7314 4.65129 21.7314H6.21559L7.37743 22.5438C7.44654 22.5922 7.52775 22.6181 7.61078 22.6183Z" fill="#C8C8C8"/>
<path d="M3.38273 23.5051C3.14922 23.5051 2.95996 23.7036 2.95996 23.9486C2.95996 24.1935 3.14922 24.392 3.38273 24.392H6.76506C6.99856 24.392 7.18783 24.1935 7.18783 23.9486C7.18783 23.7036 6.99856 23.5051 6.76506 23.5051H3.38273Z" fill="#C8C8C8"/>
</svg>
